<?xml version="1.0" standalone="no"?>
<!DOCTYPE svg PUBLIC "-//W3C//DTD SVG 20010904//EN"
 "http://www.w3.org/TR/2001/REC-SVG-20010904/DTD/svg10.dtd">
<svg version="1.0" xmlns="http://www.w3.org/2000/svg"
 width="1000.000000pt" height="331.000000pt" viewBox="0 0 1000.000000 331.000000"
 preserveAspectRatio="xMidYMid meet">

<g transform="translate(0.000000,331.000000) scale(0.100000,-0.100000)"
fill="#FFFFFF" stroke="none">
<path d="M9762 3098 c-98 -117 -486 -580 -862 -1028 -376 -448 -906 -1080
-1178 -1403 -513 -611 -525 -628 -461 -635 27 -3 -61 -108 2317 2726 232 277
422 509 422 516 0 17 -21 36 -41 36 -11 0 -89 -85 -197 -212z"/>
<path d="M7980 2900 c-492 -210 -535 -230 -538 -253 -2 -17 3 -29 15 -35 10
-6 200 -87 423 -182 223 -95 416 -177 430 -183 19 -9 -75 -13 -425 -17 l-450
-5 0 -30 0 -30 540 -3 c297 -1 550 0 563 3 25 6 31 46 10 62 -7 5 -224 99
-483 208 -258 109 -473 201 -478 204 -4 4 210 99 474 212 273 115 487 212 493
222 13 20 -2 51 -25 54 -8 0 -255 -102 -549 -227z"/>
<path d="M1868 3038 c-227 -263 -257 -305 -227 -323 5 -4 42 -7 82 -7 l72 0 3
67 3 68 77 91 c106 125 104 122 97 146 -12 39 -49 24 -107 -42z"/>
<path d="M2400 2903 c-197 -235 -198 -236 -181 -257 10 -12 32 -16 87 -16 l74
0 0 65 0 64 113 135 112 135 128 1 c70 0 127 -3 127 -6 0 -3 -46 -60 -102
-126 -57 -67 -106 -126 -110 -132 -4 -7 -27 11 -57 44 -42 47 -52 53 -68 44
-32 -20 -26 -48 21 -104 l46 -53 -43 -51 c-244 -288 -317 -380 -317 -395 0
-23 25 -45 44 -38 8 3 92 98 187 211 95 113 175 206 178 206 4 0 68 -73 143
-162 167 -200 170 -203 197 -188 12 6 21 19 21 29 0 9 -64 94 -142 187 -79 94
-149 177 -156 186 -11 14 8 40 134 189 81 96 149 180 151 187 3 7 0 19 -7 27
-10 12 -48 15 -214 15 l-201 0 -165 -197z"/>
<path d="M3319 3084 c-9 -11 -10 -20 -2 -32 9 -15 36 -17 202 -20 l191 -2 0
-80 0 -80 -222 0 -223 0 -95 -116 c-103 -125 -120 -166 -70 -172 21 -2 39 15
115 107 l90 110 203 0 202 1 0 -151 c0 -154 7 -189 38 -189 38 0 42 19 42 182
l0 158 271 0 271 0 -47 -57 c-100 -124 -99 -124 -88 -141 26 -42 49 -27 152
98 56 66 101 126 101 133 0 35 -20 37 -342 37 l-318 0 0 80 0 80 223 2 222 3
0 30 0 30 -451 3 c-403 2 -453 0 -465 -14z"/>
<path d="M4617 3094 c-4 -4 -7 -292 -7 -640 0 -629 0 -633 20 -639 50 -16 50
-15 50 471 l0 454 164 0 c127 0 166 3 175 14 8 9 11 65 9 177 l-3 164 -201 3
c-110 1 -203 -1 -207 -4z m338 -99 l0 -30 -137 -3 -138 -3 0 36 0 36 138 -3
137 -3 0 -30z m0 -140 l0 -30 -130 0 c-117 0 -130 2 -133 18 -9 45 0 48 135
45 l128 -3 0 -30z"/>
<path d="M5296 3084 c-3 -9 -6 -82 -6 -164 0 -122 3 -151 16 -164 13 -13 43
-16 175 -16 l159 0 0 -373 0 -373 -40 -39 -40 -39 52 -53 c56 -56 81 -65 98
-34 15 30 14 1243 -2 1259 -9 9 -69 12 -209 12 -170 0 -198 -2 -203 -16z m344
-89 l0 -35 -135 0 -135 0 0 35 0 35 135 0 135 0 0 -35z m-12 -142 l3 -33 -130
0 -131 0 0 35 0 36 128 -3 127 -3 3 -32z"/>
<path d="M5996 3084 c-3 -8 -6 -293 -6 -633 0 -467 3 -620 12 -629 18 -18 46
-14 58 7 6 13 10 149 10 373 l0 353 100 117 c55 65 100 126 100 137 0 27 -34
44 -81 39 -21 -2 -39 0 -39 4 0 3 36 50 81 103 57 68 79 102 77 118 -3 21 -6
22 -154 25 -132 2 -152 0 -158 -14z m118 -359 c-20 -25 -38 -45 -40 -45 -2 0
-4 20 -4 45 l0 45 41 0 40 0 -37 -45z"/>
<path d="M6520 3018 c-86 -99 -98 -121 -80 -143 18 -22 40 -19 71 10 23 23 33
26 93 23 l67 -3 -221 -263 c-121 -145 -220 -269 -220 -276 0 -17 21 -36 41
-36 11 0 131 136 309 348 160 191 298 348 306 350 9 2 14 -5 14 -21 0 -14 17
-46 40 -73 22 -27 40 -52 40 -56 0 -3 -12 -20 -26 -37 -32 -38 -29 -75 5 -79
18 -3 32 5 52 29 l26 32 23 -31 c27 -36 64 -42 79 -13 8 15 4 28 -20 61 l-30
42 59 71 59 72 59 5 c58 5 59 6 59 35 l0 30 -158 3 c-139 2 -158 1 -164 -14
-11 -30 11 -49 61 -52 l46 -3 -37 -45 -37 -46 -35 43 c-26 32 -36 53 -36 79
l0 35 -187 3 -187 2 -71 -82z m238 -8 c-11 -17 -24 -20 -87 -20 -73 0 -74 0
-56 20 15 16 31 20 87 20 66 0 68 -1 56 -20z"/>
<path d="M1855 2668 c-220 -262 -265 -317 -265 -328 0 -5 7 -16 16 -24 12 -12
38 -16 115 -16 l99 0 0 -229 c0 -195 2 -232 16 -245 8 -9 21 -16 28 -16 33 0
36 23 36 257 l0 233 98 0 c92 0 100 -2 122 -25 26 -27 49 -32 68 -13 21 21 14
34 -65 128 -64 76 -81 90 -102 88 -35 -4 -40 -42 -10 -74 l22 -24 -157 0
c-128 0 -156 2 -149 13 4 8 86 106 181 219 94 113 172 212 172 220 0 19 -20
38 -40 38 -9 0 -92 -91 -185 -202z"/>
<path d="M3450 2707 c-52 -23 -101 -46 -108 -50 -18 -12 -5 -27 37 -44 93 -39
92 -37 22 -43 -39 -3 -66 -10 -69 -17 -3 -10 26 -13 122 -13 154 0 164 12 49
60 -43 18 -82 35 -86 40 -4 4 29 23 75 43 47 20 84 42 86 51 5 24 -23 18 -128
-27z"/>
<path d="M3988 2703 c-60 -25 -108 -51 -108 -58 0 -7 28 -25 63 -41 l62 -29
-62 -3 c-47 -2 -63 -7 -63 -17 0 -12 22 -15 126 -15 163 0 163 9 5 77 l-63 28
91 39 c83 35 109 58 70 63 -8 1 -62 -19 -121 -44z"/>
<path d="M6708 2709 c-10 -5 -18 -18 -18 -27 0 -38 19 -42 197 -42 157 0 173
2 182 18 7 14 6 25 -5 40 -14 21 -22 22 -177 22 -91 0 -170 -5 -179 -11z"/>
<path d="M5100 2559 c-60 -12 -127 -55 -167 -107 -145 -190 -10 -456 232 -457
165 0 288 122 288 287 0 183 -168 315 -353 277z m134 -81 c23 -7 59 -30 83
-54 133 -133 38 -354 -152 -354 -198 0 -290 244 -139 368 61 51 128 63 208 40z"/>
<path d="M5140 2359 c0 -55 5 -69 47 -140 26 -43 54 -79 61 -79 13 0 -7 40
-70 145 -11 19 -18 50 -18 83 0 28 -4 52 -10 52 -6 0 -10 -27 -10 -61z"/>
<path d="M6565 2551 c-3 -10 -3 -26 1 -35 5 -14 25 -16 140 -16 l134 0 0 -253
0 -253 -35 -34 c-19 -19 -35 -39 -35 -46 0 -15 96 -104 113 -104 35 0 37 18
37 357 l0 332 121 3 c101 3 124 6 132 20 8 12 7 21 -2 32 -12 14 -51 16 -307
16 -276 0 -293 -1 -299 -19z"/>
<path d="M3334 2509 c-14 -23 17 -30 122 -27 94 3 109 5 112 21 3 15 -7 17
-112 17 -72 0 -117 -4 -122 -11z"/>
<path d="M3885 2509 c-15 -23 15 -30 121 -27 89 2 109 6 109 18 0 12 -20 16
-112 18 -74 2 -114 -1 -118 -9z"/>
<path d="M3342 2412 c-9 -7 -12 -54 -10 -203 l3 -194 188 -3 187 -2 0 -81 c0
-129 -23 -119 285 -119 145 0 270 3 279 6 31 12 18 54 -31 100 l-48 43 -35
-34 -36 -35 -167 0 -167 0 0 60 0 60 198 2 197 3 3 189 c2 130 -1 193 -9 202
-9 12 -84 14 -418 14 -223 0 -412 -4 -419 -8z m368 -117 l0 -45 -155 0 -155 0
0 45 0 45 155 0 155 0 0 -45z m400 0 l0 -45 -160 0 -160 0 0 45 0 45 160 0
160 0 0 -45z m-400 -170 l0 -45 -155 0 -155 0 0 45 0 45 155 0 155 0 0 -45z
m400 0 l0 -45 -160 0 -160 0 0 45 0 45 160 0 160 0 0 -45z"/>
<path d="M6541 2196 c-45 -52 -81 -103 -81 -115 0 -21 27 -41 47 -34 6 2 45
44 87 93 77 90 94 131 60 144 -27 10 -31 8 -113 -88z"/>
<path d="M7121 2194 c-45 -52 -81 -104 -81 -114 0 -21 28 -40 48 -33 15 6 172
190 172 203 0 13 -30 40 -45 40 -7 0 -49 -43 -94 -96z"/>
<path d="M2570 2175 c47 -47 87 -84 91 -83 3 2 46 40 94 86 l88 82 -179 0
-179 0 85 -85z"/>
<path d="M1673 2048 c-16 -18 -156 -184 -310 -368 -154 -184 -523 -627 -821
-983 -298 -357 -542 -654 -542 -661 0 -18 21 -36 42 -36 11 0 212 233 545 632
290 347 671 802 845 1010 175 209 320 384 323 389 9 14 -14 49 -33 49 -10 0
-32 -15 -49 -32z"/>
<path d="M2002 2068 c-22 -22 -13 -39 75 -144 74 -89 91 -105 112 -102 51 6
39 40 -55 153 -84 102 -107 118 -132 93z"/>
<path d="M2490 1972 c0 -14 155 -162 170 -162 9 0 53 38 100 85 l85 85 -178 0
c-97 0 -177 -3 -177 -8z"/>
<path d="M7442 1958 c-17 -17 -15 -55 4 -62 9 -3 248 -6 533 -6 389 0 520 3
529 12 18 18 14 46 -7 58 -30 15 -1043 14 -1059 -2z"/>
<path d="M6614 1293 c-82 -98 -281 -335 -441 -526 -203 -241 -293 -356 -293
-372 0 -31 35 -43 60 -20 10 9 112 128 226 265 l209 250 5 -436 c4 -388 7
-438 21 -447 9 -6 24 -7 33 -4 14 6 16 52 16 491 l0 484 185 221 c102 122 185
225 185 230 0 14 -30 41 -45 41 -7 0 -80 -80 -161 -177z"/>
<path d="M2342 1448 c-7 -7 -12 -43 -12 -90 l0 -78 -321 -2 c-294 -3 -323 -5
-333 -20 -8 -13 -8 -23 0 -35 10 -16 39 -18 333 -21 l321 -2 0 -498 0 -498
-40 -39 -40 -39 47 -48 c51 -51 85 -61 102 -29 7 12 10 215 8 585 l-2 566 244
2 c220 3 245 5 255 21 8 12 8 22 0 35 -10 15 -37 18 -254 22 l-242 5 0 70 c0
39 -4 78 -9 88 -11 20 -40 22 -57 5z"/>
<path d="M4992 1448 c-16 -16 -15 -33 4 -52 12 -13 41 -16 153 -16 123 0 140
2 155 19 14 15 15 24 6 40 -10 20 -19 21 -158 21 -102 0 -152 -4 -160 -12z"/>
<path d="M4227 1338 c-14 -13 -225 -261 -469 -553 -657 -784 -600 -713 -588
-735 6 -11 21 -20 33 -20 22 0 72 58 935 1087 83 100 152 190 152 200 0 19
-18 43 -31 43 -5 0 -19 -10 -32 -22z"/>
<path d="M3340 1195 c47 -47 89 -85 95 -85 5 1 51 39 100 85 l90 85 -185 0
-185 0 85 -85z"/>
<path d="M7330 1272 c0 -11 154 -162 165 -162 6 0 51 38 100 85 l90 84 -177 1
c-98 0 -178 -3 -178 -8z"/>
<path d="M4646 1214 c-20 -19 -20 -38 -3 -53 10 -7 151 -12 460 -13 l446 -3
-416 -495 c-228 -272 -431 -514 -450 -537 -42 -51 -39 -86 7 -81 22 2 79 65
321 353 551 656 646 770 652 786 3 9 -1 26 -9 38 -15 21 -18 21 -504 21 -431
0 -490 -2 -504 -16z"/>
<path d="M2138 1038 c-8 -7 -194 -226 -412 -486 -412 -492 -427 -513 -365
-520 24 -3 68 46 430 478 222 264 405 487 407 494 3 14 -23 46 -37 46 -4 0
-14 -6 -23 -12z"/>
<path d="M8290 358 c-69 -47 -100 -123 -80 -198 13 -48 58 -103 100 -120 45
-19 140 -9 178 19 95 67 94 225 0 292 -49 36 -151 39 -198 7z m140 -63 c30
-16 60 -61 60 -90 0 -51 -60 -105 -116 -105 -41 0 -94 59 -94 105 0 29 8 45
34 71 38 38 70 43 116 19z"/>
</g>
</svg>
